<?xml version="1.0" encoding="utf-8"?>
<!DOCTYPE svg PUBLIC "-//W3C//DTD SVG 20010904//EN" "http://www.w3.org/TR/2001/REC-SVG-20010904/DTD/svg10.dtd">
<svg version="1.0" xmlns="http://www.w3.org/2000/svg" width="512px" height="512px" viewBox="0 0 512 512" preserveAspectRatio="xMidYMid meet">
   <defs>
      <linearGradient id="lg0" gradientUnits="userSpaceOnUse" x1="50.0%" y1="0.0%" x2="50.0%" y2="100.0%">
         <stop offset="0%" style="stop-color:rgb(242,183,69);"></stop>
         <stop offset="100%" style="stop-color:rgb(223,78,117);"></stop>
      </linearGradient>
   </defs>
 <g fill="#efa150">
  <path fill="url(#lg0)" d="M243 227 c0 -3.2 -5.4 -7.7 -11.1 -9.4 -4.5 -1.4 -13.1 -1.6 -58.6 -1.6 l-53.3 0 0 4.5 0 4.5 -9.2 0 c-71.7 0.4 -106.8 0.4 -107.2 0 -0.9 -0.9 3.3 -23.2 6.9 -36.2 11.3 -41.9 34.4 -81.5 65.6 -112.7 99.4 -99.4 260.4 -99.4 359.8 0 31.2 31.2 54.2 70.7 65.6 112.7 4.1 14.9 7.6 34.3 6.5 35.7 -0.5 0.6 -12.1 1 -31.7 0.9 -28.5 -0.1 -53.1 -0.1 -77.8 0 -5.5 0 -16.9 -0.1 -25.2 -0.2 l-15.3 -0.2 0 -3.4 c0 -3 2.1 -5.8 17.8 -23.3 9.7 -10.9 20 -22.5 22.9 -25.7 10.7 -12.1 9.8 -21.5 -2.6 -26.3 -4.2 -1.6 -9.8 -1.8 -57.8 -2.1 l-53.3 -0.3 0 12.1 0 12 37 0 37 0 0 3.4 c0 4.4 -2.3 7.3 -31.9 40.4 -12 13.3 -15 16.2 -17.2 16.2 -3.8 0 -5.9 -1 -5.9 -2.6 0 -0.8 -0.4 -1.4 -1 -1.4 -0.5 0 -1 0.5 -1 1 0 1.5 -7.7 1.2 -8.3 -0.2 -0.4 -1 -0.7 -1 -1.4 -0.1 -0.7 0.9 -6.2 1.2 -21.6 0.9 -19.6 -0.3 -20.7 -0.2 -20.7 1.6 0 1.4 -0.8 1.8 -3.5 1.8 -2.8 0 -3.5 -0.4 -3.5 -2z m-157.4 -125.2 l2.9 -3.3 -3.2 2.9 c-3.1 2.8 -3.8 3.6 -3 3.6 0.2 0 1.6 -1.5 3.3 -3.2z m344.4 2.9 c0 -0.2 -1.5 -1.6 -3.2 -3.3 l-3.3 -2.9 2.9 3.3 c2.8 3 3.6 3.7 3.6 2.9z m-327.4 -19.9 l2.9 -3.3 -3.2 2.9 c-3.1 2.8 -3.8 3.6 -3 3.6 0.2 0 1.6 -1.5 3.3 -3.2z m310.4 2.9 c0 -0.2 -1.5 -1.6 -3.2 -3.3 l-3.3 -2.9 2.9 3.3 c2.8 3 3.6 3.7 3.6 2.9z m-171.2 -61.4 c-1 -0.2 -2.6 -0.2 -3.5 0 -1 0.3 -0.2 0.5 1.7 0.5 1.9 0 2.7 -0.2 1.8 -0.5z m32 0 c-1 -0.2 -2.6 -0.2 -3.5 0 -1 0.3 -0.2 0.5 1.7 0.5 1.9 0 2.7 -0.2 1.8 -0.5z"/>
 </g>
 <g fill="#e77763">
  <path fill="url(#lg0)" d="M22.1 356.7 c-15.7 -36.5 -22.7 -77.4 -20.1 -116.9 0.6 -9 1.5 -16.7 2 -17.1 0.7 -0.8 6.1 -1 14.3 -0.7 1.9 0.1 6.4 0.1 15.2 0.1 3.3 0 18.4 -0.1 33.5 -0.4 15.1 -0.2 28.3 0 29.3 0.5 1 0.5 1.7 0.5 1.7 0 0 -0.5 4.3 -0.7 9.5 -0.5 8.1 0.4 9.5 0.2 9.5 -1.1 0 -0.9 0.7 -1.6 1.5 -1.6 1.2 0 1.5 1.8 1.5 10.5 l0 10.5 37 0 37 0 0 3.5 c0 2.9 -1.4 5.1 -9.2 14.2 -5.1 6 -9.5 11 -9.8 11.3 -0.3 0.3 -3.9 4.3 -8 9 -4 4.7 -8.3 9.4 -9.4 10.6 -1.9 1.8 -7.4 7.9 -23.6 25.8 -2.5 2.8 -5.2 5.7 -6.1 6.6 -0.9 0.8 -6 6.5 -11.2 12.7 -9.8 11.4 -12.7 16.3 -12.7 21.3 0 2 -0.7 3 -2.2 3.6 -1.3 0.4 -18.5 0.8 -38.3 0.8 -19.8 0.1 -36.8 0.5 -37.7 1 -1.5 0.7 -2.1 0 -3.7 -3.7z m4.6 -85.4 c-0.3 -1 -0.5 -0.2 -0.5 1.7 0 1.9 0.2 2.7 0.5 1.8 0.2 -1 0.2 -2.6 0 -3.5z m0 -34 c-0.3 -1 -0.5 -0.2 -0.5 1.7 0 1.9 0.2 2.7 0.5 1.8 0.2 -1 0.2 -2.6 0 -3.5z"/>
  <path fill="url(#lg0)" d="M226.5 358.2 c-0.3 -0.7 -0.5 -4.9 -0.5 -9.3 l0 -7.9 -35.5 0 -35.5 0 0 -3.3 c0 -1.8 0.8 -3.9 1.8 -4.8 0.9 -0.9 4.4 -4.7 7.7 -8.5 3.3 -3.7 7.4 -8.3 9 -10 1.7 -1.8 5.7 -6.3 9 -10 3.3 -3.8 10.7 -12 16.5 -18.4 5.8 -6.4 15.7 -17.4 22 -24.5 6.3 -7.1 12.4 -13.8 13.5 -15 7.4 -7.8 9.6 -13.1 8.8 -21 -0.4 -3.8 -0.2 -5.5 0.6 -5.5 0.6 0 1.1 0.3 1.1 0.8 0 0.4 1.9 0.7 4.3 0.8 2.3 0 6.2 0.1 8.7 0.2 2.5 0.1 5.2 0.2 6 0.2 0.8 0 6.8 0.1 13.3 0.2 6.4 0.2 11.7 0 11.7 -0.4 0 -1.3 7.8 -0.9 8.4 0.5 0.5 1 0.7 1 1.2 0 0.8 -1.8 8.4 -1.7 8.4 0.1 0 1.9 2.5 2.7 3.9 1.3 0.8 -0.8 1.1 -0.3 1.1 1.8 -0.1 2.5 -3.4 6.7 -18.1 23 -18.8 20.7 -23.4 26.5 -24.4 30.6 -1 4 3.3 11 8.5 13.9 l4.5 2.5 53.8 0.3 53.7 0.3 0 -13.1 0 -13 -36.5 0 -36.5 0 0 -3.2 c0.1 -2.8 2.6 -6.1 17.5 -22.8 9.7 -10.7 19.1 -21 21 -22.8 1.9 -1.8 3.5 -3.7 3.5 -4.2 0 -0.6 1.4 -1 3.1 -1 l3 0 -2.1 3 -2.2 3 14.4 0 c26.7 0.1 30.3 0.1 52 -0.2 14 -0.2 21.9 0.1 22.2 0.7 0.3 0.6 0.5 0.6 0.5 -0.1 0.1 -1 1.2 -1 9.1 -0.3 1.9 0.2 4 0 4.7 -0.4 0.6 -0.4 3 -0.3 5.4 0.1 2.4 0.4 9.7 0.5 16.1 0.2 6.5 -0.3 13.2 -0.2 15 0.2 1.8 0.4 3.7 0.2 4.2 -0.3 1.6 -1.4 3.4 -1.1 4 0.9 0.3 0.9 1 8.8 1.6 17.5 1.8 27.1 -1.2 56.6 -8.5 83.3 -3.4 12.3 -10.9 33 -12.7 34.9 -0.6 0.7 -45.7 1 -131.3 1.1 -111.1 0 -130.5 -0.2 -131 -1.4z m259.2 -86.9 c-0.3 -1 -0.5 -0.2 -0.5 1.7 0 1.9 0.2 2.7 0.5 1.8 0.2 -1 0.2 -2.6 0 -3.5z m0 -34 c-0.3 -1 -0.5 -0.2 -0.5 1.7 0 1.9 0.2 2.7 0.5 1.8 0.2 -1 0.2 -2.6 0 -3.5z"/>
 </g>
 <g fill="#e15a70">
  <path fill="url(#lg0)" d="M237.5 509.9 c-88.2 -6.3 -167.8 -59.1 -208 -138.1 -3.6 -7 -6.5 -13.4 -6.5 -14.2 0 -1.7 -0.3 -1.7 14.9 -1.7 7.5 0 10.7 0.4 11.2 1.3 0.6 0.9 0.9 0.9 0.9 0.1 0 -0.7 1.4 -1.1 3.3 -1.1 1.7 0 7 0 11.7 0 4.7 -0.1 9.2 -0.1 10 -0.1 0.8 0 4.1 -0.2 7.3 -0.4 3.2 -0.2 6 0 6.3 0.5 1.2 1.9 12.4 -0.7 12.4 -2.9 0 -2.9 3.4 -0.8 4.1 2.5 0.9 4.2 4.3 7.9 9.4 10.3 3.7 1.7 7.6 1.9 57.8 1.9 l53.7 0 0 -8 c0 -6.2 0.3 -8 1.4 -8 0.8 0 1.6 1 1.9 2.3 0.6 2.2 0.8 2.2 14.4 1.9 7.6 -0.1 14.7 -0.3 15.8 -0.3 1.1 0 4.9 0 8.5 0 3.6 0.1 9.3 0 12.8 -0.2 3.4 -0.1 6.2 0.2 6.2 0.7 0 0.4 0.8 0.5 1.8 0.1 0.9 -0.4 2.4 -0.7 3.2 -0.6 0.8 0 7.1 0.1 14 0 6.9 0 13 0 13.5 0 0.6 0 4.9 0.2 9.8 0.3 4.8 0.2 8.8 -0.1 9 -0.6 0.2 -0.6 2.3 -0.4 5 0.3 2.5 0.8 5.4 1 6.4 0.6 2.6 -1.1 17.3 -1.4 17.3 -0.3 0 0.5 0.9 0.4 2 -0.2 1.1 -0.6 2.6 -0.8 3.2 -0.4 1.3 0.9 34.1 0.8 41.2 0 2.8 -0.3 5.5 -0.1 6.2 0.5 0.8 0.6 1.4 0.6 1.8 0 0.4 -0.6 5.1 -0.7 12.4 -0.3 12.5 0.6 15.1 0.6 22.5 0.1 3.2 -0.3 5 0 5.6 0.9 0.7 1.1 0.9 1.1 1.3 0 0.4 -0.9 1.9 -1.3 4.4 -1.1 2.2 0.1 8.1 0.3 13.2 0.4 5 0 9.2 0.3 9.2 0.5 0 0.3 -3.1 6.7 -7 14.2 -24.6 48.5 -63.3 87.3 -111.2 111.8 -32.1 16.3 -63.2 24.8 -99.8 27.4 -16 1.1 -17.3 1.1 -34.5 -0.1z m3.3 -24.6 c-1 -0.2 -2.6 -0.2 -3.5 0 -1 0.3 -0.2 0.5 1.7 0.5 1.9 0 2.7 -0.2 1.8 -0.5z m34 0 c-1 -0.2 -2.6 -0.2 -3.5 0 -1 0.3 -0.2 0.5 1.7 0.5 1.9 0 2.7 -0.2 1.8 -0.5z m-169.8 -55.6 c0 -0.2 -1.5 -1.6 -3.2 -3.3 l-3.3 -2.9 2.9 3.3 c2.8 3 3.6 3.7 3.6 2.9z m305.6 -2.9 l2.9 -3.3 -3.2 2.9 c-3.1 2.8 -3.8 3.6 -3 3.6 0.2 0 1.6 -1.5 3.3 -3.2z m-322.6 -14.1 c0 -0.2 -1.5 -1.6 -3.2 -3.3 l-3.3 -2.9 2.9 3.3 c2.8 3 3.6 3.7 3.6 2.9z m339.6 -2.9 l2.9 -3.3 -3.2 2.9 c-3.1 2.8 -3.8 3.6 -3 3.6 0.2 0 1.6 -1.5 3.3 -3.2z"/>
 </g>
 <g fill="#ffffff">
  <path d="M111.5 369.1 c-2.3 -1 -5.3 -3.2 -6.7 -4.9 -3.4 -4 -4.6 -12.3 -2.7 -17.8 1.1 -3 18.8 -25.1 23.2 -28.9 0.7 -0.6 3.2 -3.3 5.7 -6 12.6 -14 21.7 -24.1 23.6 -25.9 1.1 -1.2 5.4 -5.9 9.4 -10.6 4.1 -4.7 7.7 -8.7 8 -9 0.3 -0.3 4.8 -5.4 10 -11.5 l9.4 -11 -37.2 -0.3 -37.2 -0.2 0 -15 0 -15 56.3 0 c48.3 0 57.1 0.2 61.6 1.6 7 2 10.8 5.9 11.7 12.1 1.2 7.9 -1.6 14.8 -9.1 22.8 -1.1 1.2 -7.2 7.9 -13.5 15 -6.3 7.1 -16.2 18.1 -22 24.5 -5.8 6.4 -13.2 14.6 -16.5 18.4 -3.3 3.7 -7.3 8.2 -9 10 -1.6 1.7 -5.7 6.3 -9 10 -3.3 3.8 -6.9 7.7 -7.9 8.7 -1.9 1.9 -1.1 1.9 33.7 1.9 l35.7 0 0 16.5 0 16.5 -56.7 0 c-52.9 0 -57.1 -0.2 -60.8 -1.9z"/>
  <path d="M278.8 297.6 c-6.2 -2.2 -8.9 -4.5 -11 -9.3 -2.8 -6.3 -2.1 -12.6 1.9 -18.4 1.7 -2.4 10.2 -12.3 18.9 -22 43.3 -47.9 51.5 -57 58.3 -64.9 4 -4.7 7.7 -9.3 8.2 -10.3 0.9 -1.6 -1.1 -1.7 -36.1 -1.7 l-37 0 0 -15 0 -15.1 56.3 0.3 c51.4 0.3 56.6 0.5 60.9 2.2 9.1 3.4 12.6 11.6 9.4 21.4 -1.8 5.3 -4.8 8.8 -61.9 72.2 l-26.6 29.5 36.5 0.3 36.4 0.2 0 16 0 16 -55.2 0 c-43.5 -0.1 -56.1 -0.4 -59 -1.4z"/>
 </g>
</svg>